<svg xmlns="http://www.w3.org/2000/svg" viewBox="0 0 1893.0 571.0" fill="currentColor"><g transform="translate(0.00 0.00) scale(1.00000)"><path fill="currentColor" fill-rule="evenodd" d="M0,0 L173,0 L262,7 L457,24 L558,33 L593,36 L602,39 L634,56 L656,68 L666,73 L715,74 L746,75 L764,88 L779,98 L789,105 L799,112 L811,120 L817,124 L841,128 L816,118 L819,116 L862,107 L902,99 L912,99 L967,110 L999,117 L998,119 L974,128 L1000,124 L1012,116 L1031,102 L1048,90 L1066,77 L1072,75 L1139,74 L1150,73 L1173,61 L1195,49 L1217,37 L1294,30 L1488,13 L1597,4 L1633,1 L1707,0 L1814,0 L1814,2 L1789,13 L1766,23 L1750,30 L1727,40 L1717,41 L1567,47 L1539,48 L1528,49 L1502,62 L1487,70 L1507,70 L1547,69 L1740,66 L1740,68 L1719,80 L1691,96 L1667,110 L1640,125 L1628,132 L1505,138 L1443,141 L1428,142 L1531,157 L1596,167 L1598,169 L1583,175 L1567,181 L1509,203 L1486,212 L1477,212 L1390,202 L1339,197 L1334,197 L1373,211 L1415,226 L1442,236 L1454,240 L1454,242 L1439,247 L1395,261 L1374,268 L1361,266 L1309,255 L1261,246 L1222,240 L1245,251 L1262,260 L1278,268 L1294,276 L1322,290 L1321,292 L1224,305 L1163,313 L1147,309 L1117,300 L1093,293 L1068,286 L1062,287 L1051,293 L1027,306 L1016,312 L1010,333 L1003,360 L992,376 L982,391 L976,391 L974,395 L960,412 L959,415 L971,404 L977,399 L987,399 L1001,406 L1003,430 L1003,444 L999,449 L996,448 L991,439 L991,437 L980,446 L971,453 L968,449 L968,441 L972,426 L972,423 L959,440 L949,454 L942,466 L943,471 L948,478 L947,487 L945,490 L931,481 L927,486 L924,492 L922,490 L919,476 L919,469 L924,460 L923,442 L945,339 L954,299 L938,300 L940,296 L963,273 L964,271 L966,271 L968,267 L978,252 L985,236 L990,218 L993,194 L994,169 L989,189 L985,201 L975,220 L968,231 L954,246 L953,247 L950,268 L946,277 L941,283 L927,291 L921,293 L915,292 L923,306 L922,313 L916,327 L911,339 L906,340 L902,338 L894,317 L891,310 L892,305 L899,292 L893,293 L883,289 L872,282 L870,278 L868,278 L864,268 L861,247 L856,242 L847,232 L837,217 L829,200 L824,185 L820,168 L821,194 L824,218 L828,233 L834,248 L843,263 L848,269 L848,271 L850,271 L857,279 L863,286 L867,289 L867,291 L871,293 L876,298 L875,300 L860,299 L876,373 L890,439 L891,445 L890,461 L895,469 L895,476 L891,492 L888,489 L883,481 L870,489 L867,489 L866,477 L872,469 L871,464 L864,453 L854,439 L842,423 L844,434 L846,442 L846,449 L842,453 L831,443 L823,437 L821,442 L817,449 L815,449 L811,443 L811,429 L813,406 L826,399 L837,399 L848,409 L856,415 L845,401 L838,393 L838,391 L833,391 L827,383 L815,366 L811,359 L799,314 L799,311 L794,310 L780,302 L758,290 L751,286 L742,287 L706,297 L675,306 L656,312 L647,312 L579,303 L497,292 L492,291 L495,288 L517,277 L533,269 L579,246 L591,240 L563,244 L518,252 L454,265 L445,267 L437,266 L393,252 L365,243 L360,241 L363,239 L381,232 L423,217 L468,201 L482,196 L459,198 L408,203 L339,211 L328,211 L284,194 L259,184 L247,180 L229,173 L217,169 L216,167 L251,161 L347,147 L387,141 L195,132 L185,131 L169,121 L154,113 L130,99 L105,85 L81,71 L74,67 L74,66 L128,66 L299,69 L328,69 L305,58 L289,50 L285,48 L206,45 L91,40 L81,37 L48,22 L36,17 L23,11 L0,1 Z M970,129 Z M1020,203 L1011,213 L999,225 L1000,230 L1010,252 L1011,255 L1013,255 L1021,205 Z M794,204 L795,217 L801,254 L803,255 L811,237 L815,228 L814,224 L806,215 L801,210 Z M871,262 Z M942,262 Z M872,263 L873,273 L877,278 L884,282 L886,281 L877,269 L873,263 Z M941,263 L929,280 L928,282 L933,280 L940,276 L942,268 L942,263 Z M899,291 Z M914,291 Z M857,416 Z M956,416 Z M858,417 Z M955,417 Z M859,418 Z M840,421 Z M973,421 Z " transform="translate(40,40)"/><path fill="#3DDC97" fill-rule="evenodd" d="M0,0 L174,1 L183,3 L187,4 L188,6 L197,8 L206,12 L216,16 L219,18 L228,20 L231,23 L235,25 L244,27 L250,31 L264,36 L265,39 L278,40 L278,43 L283,45 L283,48 L253,48 L202,46 L186,45 L155,44 L138,43 L88,41 L75,36 L60,29 L43,22 L30,16 L15,9 L5,5 L-1,2 Z " transform="translate(41,39)"/><path fill="#3DDC97" fill-rule="evenodd" d="M0,0 L132,0 L131,2 L115,9 L99,16 L86,22 L77,26 L52,37 L45,40 L40,41 L-40,44 L-140,48 L-153,48 L-152,44 L-144,40 L-137,40 L-137,38 L-127,32 L-115,29 L-105,25 L-104,23 L-98,20 L-97,19 L-89,18 L-87,15 L-80,14 L-82,13 L-82,10 L-77,11 L-73,12 L-69,9 L-64,6 L-57,4 L-50,1 Z " transform="translate(1723,40)"/><path fill="#3DDC97" fill-rule="evenodd" d="M0,0 L4,2 L8,6 L10,12 L10,20 L7,32 L0,44 L-8,51 L-17,57 L-20,57 L-18,51 L-14,44 L-11,32 L-11,12 Z " transform="translate(1083,475)"/><path fill="#3DDC97" fill-rule="evenodd" d="M0,0 L7,6 L12,12 L12,33 L15,44 L21,55 L21,57 L15,55 L7,49 L-1,41 L-7,30 L-9,20 L-8,8 L-2,1 Z " transform="translate(810,475)"/><path fill="#3DDC97" fill-rule="evenodd" d="M0,0 L4,2 L15,11 L16,16 L15,19 L15,35 L20,51 L22,59 L17,56 L8,48 L1,37 L-4,26 L-5,22 L-5,8 Z " transform="translate(865,484)"/><path fill="#3DDC97" fill-rule="evenodd" d="M0,0 L3,3 L6,8 L6,19 L3,31 L-2,41 L-11,52 L-20,59 L-21,57 L-16,43 L-14,32 L-14,11 Z " transform="translate(1028,484)"/><path fill="#3DDC97" fill-rule="evenodd" d="M0,0 L6,2 L14,8 L17,25 L24,35 L26,39 L28,39 L32,45 L24,44 L14,40 L8,36 L1,29 L-3,21 L-4,17 L-4,8 Z " transform="translate(971,526)"/><path fill="#3DDC97" fill-rule="evenodd" d="M0,0 L3,4 L5,9 L5,17 L1,27 L-6,35 L-15,41 L-26,45 L-31,45 L-29,41 L-27,41 L-25,37 L-22,33 L-20,33 L-18,27 L-15,20 L-13,8 L-9,5 L-7,5 L-7,3 Z " transform="translate(922,526)"/></g></svg>