<svg xmlns="http://www.w3.org/2000/svg" viewBox="0 0 1769.3 300.0" fill="currentColor"><g transform="translate(0.00 0.00) scale(0.52539)"><path fill="currentColor" fill-rule="evenodd" d="M0,0 L173,0 L262,7 L457,24 L558,33 L593,36 L602,39 L634,56 L656,68 L666,73 L715,74 L746,75 L764,88 L779,98 L789,105 L799,112 L811,120 L817,124 L841,128 L816,118 L819,116 L862,107 L902,99 L912,99 L967,110 L999,117 L998,119 L974,128 L1000,124 L1012,116 L1031,102 L1048,90 L1066,77 L1072,75 L1139,74 L1150,73 L1173,61 L1195,49 L1217,37 L1294,30 L1488,13 L1597,4 L1633,1 L1707,0 L1814,0 L1814,2 L1789,13 L1766,23 L1750,30 L1727,40 L1717,41 L1567,47 L1539,48 L1528,49 L1502,62 L1487,70 L1507,70 L1547,69 L1740,66 L1740,68 L1719,80 L1691,96 L1667,110 L1640,125 L1628,132 L1505,138 L1443,141 L1428,142 L1531,157 L1596,167 L1598,169 L1583,175 L1567,181 L1509,203 L1486,212 L1477,212 L1390,202 L1339,197 L1334,197 L1373,211 L1415,226 L1442,236 L1454,240 L1454,242 L1439,247 L1395,261 L1374,268 L1361,266 L1309,255 L1261,246 L1222,240 L1245,251 L1262,260 L1278,268 L1294,276 L1322,290 L1321,292 L1224,305 L1163,313 L1147,309 L1117,300 L1093,293 L1068,286 L1062,287 L1051,293 L1027,306 L1016,312 L1010,333 L1003,360 L992,376 L982,391 L976,391 L974,395 L960,412 L959,415 L971,404 L977,399 L987,399 L1001,406 L1003,430 L1003,444 L999,449 L996,448 L991,439 L991,437 L980,446 L971,453 L968,449 L968,441 L972,426 L972,423 L959,440 L949,454 L942,466 L943,471 L948,478 L947,487 L945,490 L931,481 L927,486 L924,492 L922,490 L919,476 L919,469 L924,460 L923,442 L945,339 L954,299 L938,300 L940,296 L963,273 L964,271 L966,271 L968,267 L978,252 L985,236 L990,218 L993,194 L994,169 L989,189 L985,201 L975,220 L968,231 L954,246 L953,247 L950,268 L946,277 L941,283 L927,291 L921,293 L915,292 L923,306 L922,313 L916,327 L911,339 L906,340 L902,338 L894,317 L891,310 L892,305 L899,292 L893,293 L883,289 L872,282 L870,278 L868,278 L864,268 L861,247 L856,242 L847,232 L837,217 L829,200 L824,185 L820,168 L821,194 L824,218 L828,233 L834,248 L843,263 L848,269 L848,271 L850,271 L857,279 L863,286 L867,289 L867,291 L871,293 L876,298 L875,300 L860,299 L876,373 L890,439 L891,445 L890,461 L895,469 L895,476 L891,492 L888,489 L883,481 L870,489 L867,489 L866,477 L872,469 L871,464 L864,453 L854,439 L842,423 L844,434 L846,442 L846,449 L842,453 L831,443 L823,437 L821,442 L817,449 L815,449 L811,443 L811,429 L813,406 L826,399 L837,399 L848,409 L856,415 L845,401 L838,393 L838,391 L833,391 L827,383 L815,366 L811,359 L799,314 L799,311 L794,310 L780,302 L758,290 L751,286 L742,287 L706,297 L675,306 L656,312 L647,312 L579,303 L497,292 L492,291 L495,288 L517,277 L533,269 L579,246 L591,240 L563,244 L518,252 L454,265 L445,267 L437,266 L393,252 L365,243 L360,241 L363,239 L381,232 L423,217 L468,201 L482,196 L459,198 L408,203 L339,211 L328,211 L284,194 L259,184 L247,180 L229,173 L217,169 L216,167 L251,161 L347,147 L387,141 L195,132 L185,131 L169,121 L154,113 L130,99 L105,85 L81,71 L74,67 L74,66 L128,66 L299,69 L328,69 L305,58 L289,50 L285,48 L206,45 L91,40 L81,37 L48,22 L36,17 L23,11 L0,1 Z M970,129 Z M1020,203 L1011,213 L999,225 L1000,230 L1010,252 L1011,255 L1013,255 L1021,205 Z M794,204 L795,217 L801,254 L803,255 L811,237 L815,228 L814,224 L806,215 L801,210 Z M871,262 Z M942,262 Z M872,263 L873,273 L877,278 L884,282 L886,281 L877,269 L873,263 Z M941,263 L929,280 L928,282 L933,280 L940,276 L942,268 L942,263 Z M899,291 Z M914,291 Z M857,416 Z M956,416 Z M858,417 Z M955,417 Z M859,418 Z M840,421 Z M973,421 Z " transform="translate(40,40)"/><path fill="#3DDC97" fill-rule="evenodd" d="M0,0 L174,1 L183,3 L187,4 L188,6 L197,8 L206,12 L216,16 L219,18 L228,20 L231,23 L235,25 L244,27 L250,31 L264,36 L265,39 L278,40 L278,43 L283,45 L283,48 L253,48 L202,46 L186,45 L155,44 L138,43 L88,41 L75,36 L60,29 L43,22 L30,16 L15,9 L5,5 L-1,2 Z " transform="translate(41,39)"/><path fill="#3DDC97" fill-rule="evenodd" d="M0,0 L132,0 L131,2 L115,9 L99,16 L86,22 L77,26 L52,37 L45,40 L40,41 L-40,44 L-140,48 L-153,48 L-152,44 L-144,40 L-137,40 L-137,38 L-127,32 L-115,29 L-105,25 L-104,23 L-98,20 L-97,19 L-89,18 L-87,15 L-80,14 L-82,13 L-82,10 L-77,11 L-73,12 L-69,9 L-64,6 L-57,4 L-50,1 Z " transform="translate(1723,40)"/><path fill="#3DDC97" fill-rule="evenodd" d="M0,0 L4,2 L8,6 L10,12 L10,20 L7,32 L0,44 L-8,51 L-17,57 L-20,57 L-18,51 L-14,44 L-11,32 L-11,12 Z " transform="translate(1083,475)"/><path fill="#3DDC97" fill-rule="evenodd" d="M0,0 L7,6 L12,12 L12,33 L15,44 L21,55 L21,57 L15,55 L7,49 L-1,41 L-7,30 L-9,20 L-8,8 L-2,1 Z " transform="translate(810,475)"/><path fill="#3DDC97" fill-rule="evenodd" d="M0,0 L4,2 L15,11 L16,16 L15,19 L15,35 L20,51 L22,59 L17,56 L8,48 L1,37 L-4,26 L-5,22 L-5,8 Z " transform="translate(865,484)"/><path fill="#3DDC97" fill-rule="evenodd" d="M0,0 L3,3 L6,8 L6,19 L3,31 L-2,41 L-11,52 L-20,59 L-21,57 L-16,43 L-14,32 L-14,11 Z " transform="translate(1028,484)"/><path fill="#3DDC97" fill-rule="evenodd" d="M0,0 L6,2 L14,8 L17,25 L24,35 L26,39 L28,39 L32,45 L24,44 L14,40 L8,36 L1,29 L-3,21 L-4,17 L-4,8 Z " transform="translate(971,526)"/><path fill="#3DDC97" fill-rule="evenodd" d="M0,0 L3,4 L5,9 L5,17 L1,27 L-6,35 L-15,41 L-26,45 L-31,45 L-29,41 L-27,41 L-25,37 L-22,33 L-20,33 L-18,27 L-15,20 L-13,8 L-9,5 L-7,5 L-7,3 Z " transform="translate(922,526)"/></g><g transform="translate(1084.57 154.00)"><g transform="translate(0.000 0) scale(0.10067 -0.10067)"><path d="M784 -21Q586 -21 428.0 70.0Q270 161 178.5 332.0Q87 503 87 744Q87 986 178.5 1157.5Q270 1329 428.0 1420.0Q586 1511 784 1511Q982 1511 1139.5 1420.0Q1297 1329 1388.5 1157.5Q1480 986 1480 744Q1480 503 1388.5 331.5Q1297 160 1139.5 69.5Q982 -21 784 -21ZM784 250Q900 250 987.0 307.0Q1074 364 1122.5 474.5Q1171 585 1171 744Q1171 904 1122.5 1015.0Q1074 1126 987.0 1183.0Q900 1240 784 1240Q669 1240 581.5 1182.5Q494 1125 445.5 1014.5Q397 904 397 744Q397 585 445.5 475.0Q494 365 581.5 307.5Q669 250 784 250Z"/></g><g transform="translate(151.566 0) scale(0.10067 -0.10067)"><path d="M680 -22Q498 -22 365.0 34.0Q232 90 158.5 199.5Q85 309 82 468H379Q383 392 422.0 339.5Q461 287 527.0 260.5Q593 234 678 234Q760 234 821.5 258.0Q883 282 917.0 325.0Q951 368 951 424Q951 475 921.5 510.0Q892 545 834.5 570.0Q777 595 692 614L530 654Q334 700 226.5 799.5Q119 899 119 1061Q119 1196 191.5 1297.0Q264 1398 390.5 1454.5Q517 1511 681 1511Q847 1511 970.5 1454.0Q1094 1397 1163.0 1295.0Q1232 1193 1235 1058H941Q933 1151 863.5 1203.0Q794 1255 679 1255Q602 1255 546.0 1232.5Q490 1210 460.5 1170.5Q431 1131 431 1080Q431 1027 462.5 991.5Q494 956 549.5 932.5Q605 909 674 893L810 860Q909 838 991.5 801.5Q1074 765 1134.0 713.0Q1194 661 1226.0 590.0Q1258 519 1258 428Q1258 291 1189.0 189.5Q1120 88 991.0 33.0Q862 -22 680 -22Z"/></g><g transform="translate(280.281 0) scale(0.10067 -0.10067)"><path d="M129 0V1490H712Q881 1490 1001.0 1426.5Q1121 1363 1184.5 1250.5Q1248 1138 1248 990Q1248 842 1183.5 730.0Q1119 618 998.0 555.0Q877 492 706 492H323V741H665Q755 741 815.5 772.5Q876 804 906.0 860.0Q936 916 936 990Q936 1065 906.0 1120.0Q876 1175 815.5 1206.0Q755 1237 664 1237H435V0Z"/></g><g transform="translate(406.981 0) scale(0.10067 -0.10067)"><path d="M129 0V1490H714Q883 1490 1003.0 1430.0Q1123 1370 1186.5 1261.0Q1250 1152 1250 1004Q1250 857 1185.0 750.0Q1120 643 998.0 586.0Q876 529 704 529H311V776H667Q757 776 817.0 802.5Q877 829 907.5 880.0Q938 931 938 1004Q938 1079 907.5 1130.5Q877 1182 817.0 1209.5Q757 1237 666 1237H435V0ZM962 0 604 677H934L1299 0Z"/></g><g transform="translate(535.897 0) scale(0.10067 -0.10067)"><path d="M592 0V560L40 1490H397L649 1029Q686 961 717.0 894.0Q748 827 780 739H713Q744 828 773.5 895.5Q803 963 839 1029L1083 1490H1438L895 560V0Z"/></g></g><g transform="translate(1084.57 232.00)" opacity="0.62"><g transform="translate(0.000 0) scale(0.02953 -0.02953)"><path d="M692 -22Q598 -22 534.5 9.5Q471 41 431.5 85.5Q392 130 369 172H354V0H141V1490H360V929H370Q392 969 431.0 1013.0Q470 1057 533.0 1088.5Q596 1120 692 1120Q828 1120 932.5 1051.5Q1037 983 1097.0 855.5Q1157 728 1157 550Q1157 373 1097.5 245.0Q1038 117 933.5 47.5Q829 -22 692 -22ZM645 164Q738 164 803.0 214.0Q868 264 901.5 351.5Q935 439 935 551Q935 664 901.5 750.0Q868 836 803.5 885.0Q739 934 645 934Q551 934 486.0 886.0Q421 838 387.5 752.5Q354 667 354 551Q354 436 388.0 349.0Q422 262 487.5 213.0Q553 164 645 164Z"/></g><g transform="translate(45.291 0) scale(0.02953 -0.02953)"><path d="M133 -406 175 -226 220 -232Q271 -243 312.0 -235.0Q353 -227 383.5 -193.5Q414 -160 433 -94L462 -2L41 1104H276L495 481Q531 381 556.0 281.5Q581 182 609 83H543Q571 182 598.0 282.0Q625 382 660 481L882 1104H1114L630 -162Q597 -248 548.5 -306.5Q500 -365 434.0 -394.5Q368 -424 282 -424Q235 -424 195.5 -418.0Q156 -412 133 -406Z"/></g><g transform="translate(112.101 0) scale(0.02953 -0.02953)"><path d="M158 0V1490H386V196H1066V0Z"/></g><g transform="translate(154.469 0) scale(0.02953 -0.02953)"><path d="M617 -23Q453 -23 335.0 48.0Q217 119 153.5 247.0Q90 375 90 546Q90 715 153.0 844.5Q216 974 331.0 1047.0Q446 1120 599 1120Q699 1120 788.5 1087.0Q878 1054 947.5 985.5Q1017 917 1057.0 811.5Q1097 706 1097 561V487H206V651H984L884 598Q884 699 851.5 776.5Q819 854 755.5 897.0Q692 940 600 940Q508 940 442.5 896.0Q377 852 342.0 779.0Q307 706 307 616V509Q307 398 345.5 319.0Q384 240 454.5 198.5Q525 157 619 157Q682 157 733.0 175.5Q784 194 820.0 230.0Q856 266 874 318L1080 280Q1055 190 991.0 121.5Q927 53 831.5 15.0Q736 -23 617 -23Z"/></g><g transform="translate(197.870 0) scale(0.02953 -0.02953)"><path d="M608 -440Q478 -440 382.5 -406.0Q287 -372 225.5 -312.5Q164 -253 137 -178L326 -110Q345 -146 379.0 -181.5Q413 -217 468.0 -240.5Q523 -264 607 -264Q735 -264 813.0 -201.5Q891 -139 891 -11V195H876Q852 153 813.5 110.5Q775 68 712.0 39.0Q649 10 554 10Q422 10 316.5 74.0Q211 138 150.5 259.5Q90 381 90 556Q90 730 150.5 856.5Q211 983 316.5 1051.5Q422 1120 556 1120Q652 1120 715.5 1089.0Q779 1058 819.0 1013.0Q859 968 882 927H894V1104H1107V-10Q1107 -159 1041.0 -254.0Q975 -349 862.0 -394.5Q749 -440 608 -440ZM604 193Q697 193 762.0 237.0Q827 281 861.0 363.0Q895 445 895 559Q895 671 861.0 755.0Q827 839 762.0 886.5Q697 934 604 934Q510 934 444.5 885.5Q379 837 345.5 752.5Q312 668 312 559Q312 447 346.0 365.0Q380 283 445.0 238.0Q510 193 604 193Z"/></g><g transform="translate(243.220 0) scale(0.02953 -0.02953)"><path d="M141 0V1104H360V0ZM251 1277Q194 1277 154.0 1315.5Q114 1354 114 1408Q114 1463 154.0 1500.5Q194 1538 251 1538Q308 1538 348.0 1500.5Q388 1463 388 1408Q388 1354 348.0 1315.5Q308 1277 251 1277Z"/></g><g transform="translate(266.482 0) scale(0.02953 -0.02953)"><path d="M608 -23Q452 -23 335.5 48.5Q219 120 154.5 248.5Q90 377 90 547Q90 719 154.5 848.0Q219 977 335.5 1048.5Q452 1120 608 1120Q765 1120 881.5 1048.5Q998 977 1062.5 848.0Q1127 719 1127 547Q1127 377 1062.5 248.5Q998 120 881.5 48.5Q765 -23 608 -23ZM608 162Q707 162 773.5 213.5Q840 265 873.0 352.5Q906 440 906 547Q906 656 873.0 743.5Q840 831 773.5 883.0Q707 935 608 935Q509 935 443.5 883.0Q378 831 345.0 743.5Q312 656 312 547Q312 440 345.0 352.5Q378 265 443.5 213.5Q509 162 608 162Z"/></g><g transform="translate(310.887 0) scale(0.02953 -0.02953)"><path d="M360 650V0H141V1104H351L352 833H324Q373 981 466.0 1050.5Q559 1120 691 1120Q804 1120 889.5 1072.0Q975 1024 1023.0 930.5Q1071 837 1071 699V0H853V672Q853 794 790.5 861.5Q728 929 619 929Q545 929 486.0 897.0Q427 865 393.5 803.0Q360 741 360 650Z"/></g></g><g transform="translate(1084.57 296.00)" fill="#3DDC97"><g transform="translate(0.000 0) scale(0.05205 -0.05205)"><path d="M101 0V90H250V640H101V730H499V640H350V90H499V0Z"/></g><g transform="translate(33.315 0) scale(0.05205 -0.05205)"><path d="M264 -10Q181 -10 132.0 45.5Q83 101 83 196V354Q83 449 132.0 504.5Q181 560 264 560Q325 560 365.5 529.0Q406 498 415 444L413 572V730H512V0H414V107Q405 52 365.0 21.0Q325 -10 264 -10ZM298 76Q351 76 382.0 109.0Q413 142 413 202V348Q413 408 382.0 441.0Q351 474 298 474Q243 474 212.5 445.5Q182 417 182 353V197Q182 133 212.5 104.5Q243 76 298 76Z"/></g><g transform="translate(66.630 0) scale(0.05205 -0.05205)"><path d="M300 -10Q201 -10 140.5 49.0Q80 108 80 210V340Q80 442 140.5 501.0Q201 560 300 560Q366 560 415.5 533.5Q465 507 492.5 459.5Q520 412 520 349V250H177V202Q177 142 210.0 108.0Q243 74 300 74Q348 74 379.0 92.0Q410 110 416 142H515Q505 72 446.0 31.0Q387 -10 300 -10ZM177 349V323H423V349Q423 412 391.0 446.0Q359 480 300 480Q241 480 209.0 446.0Q177 412 177 349Z"/></g><g transform="translate(99.945 0) scale(0.05205 -0.05205)"><path d="M88 0V550H186V445H187Q194 499 232.5 529.5Q271 560 334 560Q416 560 465.0 508.0Q514 456 514 368V0H415V352Q415 412 385.0 444.0Q355 476 303 476Q249 476 218.0 442.5Q187 409 187 349V0Z"/></g><g transform="translate(133.260 0) scale(0.05205 -0.05205)"><path d="M355 0Q284 0 242.5 41.0Q201 82 201 150V460H44V550H201V705H300V550H523V460H300V151Q300 124 315.5 107.0Q331 90 357 90H518V0Z"/></g><g transform="translate(166.575 0) scale(0.05205 -0.05205)"><path d="M83 0V90H276V460H103V550H375V90H556V0ZM316 647Q282 647 262.0 664.5Q242 682 242 712Q242 743 262.0 761.0Q282 779 316 779Q350 779 370.0 761.0Q390 743 390 712Q390 682 370.0 664.5Q350 647 316 647Z"/></g><g transform="translate(199.890 0) scale(0.05205 -0.05205)"><path d="M355 0Q284 0 242.5 41.0Q201 82 201 150V460H44V550H201V705H300V550H523V460H300V151Q300 124 315.5 107.0Q331 90 357 90H518V0Z"/></g><g transform="translate(233.205 0) scale(0.05205 -0.05205)"><path d="M175 -180 255 33 50 550H155L279 225Q287 204 295.0 180.0Q303 156 306 138Q309 156 316.0 180.0Q323 204 331 225L446 550H551L278 -180Z"/></g><g transform="translate(299.836 0) scale(0.05205 -0.05205)"><path d="M89 0V730H315Q382 730 432.0 703.5Q482 677 510.0 629.5Q538 582 538 518Q538 444 500.5 391.0Q463 338 401 316L548 0H439L300 305H187V0ZM187 393H315Q371 393 403.5 427.0Q436 461 436 517Q436 574 403.0 608.0Q370 642 315 642H187Z"/></g><g transform="translate(333.151 0) scale(0.05205 -0.05205)"><path d="M300 -10Q201 -10 140.5 49.0Q80 108 80 210V340Q80 442 140.5 501.0Q201 560 300 560Q366 560 415.5 533.5Q465 507 492.5 459.5Q520 412 520 349V250H177V202Q177 142 210.0 108.0Q243 74 300 74Q348 74 379.0 92.0Q410 110 416 142H515Q505 72 446.0 31.0Q387 -10 300 -10ZM177 349V323H423V349Q423 412 391.0 446.0Q359 480 300 480Q241 480 209.0 446.0Q177 412 177 349Z"/></g><g transform="translate(366.466 0) scale(0.05205 -0.05205)"><path d="M278 -8Q184 -8 132.0 34.0Q80 76 80 152H178Q178 116 204.5 95.5Q231 75 278 75H322Q371 75 397.5 96.0Q424 117 424 155Q424 222 358 230L210 251Q151 260 119.0 299.5Q87 339 87 402Q87 476 137.0 517.0Q187 558 277 558H321Q405 558 457.0 518.0Q509 478 512 412H412Q410 440 386.0 458.5Q362 477 321 477H277Q232 477 207.5 457.0Q183 437 183 403Q183 348 238 341L377 321Q520 302 520 155Q520 77 468.5 34.5Q417 -8 322 -8Z"/></g><g transform="translate(399.781 0) scale(0.05205 -0.05205)"><path d="M300 -8Q199 -8 139.5 50.0Q80 108 80 212V338Q80 442 139.5 500.0Q199 558 300 558Q401 558 460.5 500.0Q520 442 520 338V212Q520 108 460.5 50.0Q401 -8 300 -8ZM300 79Q356 79 388.5 110.5Q421 142 421 203V347Q421 408 388.5 439.5Q356 471 300 471Q244 471 211.5 439.5Q179 408 179 347V203Q179 142 211.5 110.5Q244 79 300 79Z"/></g><g transform="translate(433.096 0) scale(0.05205 -0.05205)"><path d="M382 0Q307 0 262.0 44.0Q217 88 217 161V640H29V730H316V162Q316 129 334.5 109.5Q353 90 385 90H552V0Z"/></g><g transform="translate(466.411 0) scale(0.05205 -0.05205)"><path d="M299 -10Q202 -10 144.0 47.0Q86 104 86 202V550H185V202Q185 144 215.5 110.5Q246 77 299 77Q353 77 384.0 110.5Q415 144 415 202V550H514V202Q514 104 455.5 47.0Q397 -10 299 -10Z"/></g><g transform="translate(499.726 0) scale(0.05205 -0.05205)"><path d="M355 0Q284 0 242.5 41.0Q201 82 201 150V460H44V550H201V705H300V550H523V460H300V151Q300 124 315.5 107.0Q331 90 357 90H518V0Z"/></g><g transform="translate(533.041 0) scale(0.05205 -0.05205)"><path d="M83 0V90H276V460H103V550H375V90H556V0ZM316 647Q282 647 262.0 664.5Q242 682 242 712Q242 743 262.0 761.0Q282 779 316 779Q350 779 370.0 761.0Q390 743 390 712Q390 682 370.0 664.5Q350 647 316 647Z"/></g><g transform="translate(566.356 0) scale(0.05205 -0.05205)"><path d="M300 -8Q199 -8 139.5 50.0Q80 108 80 212V338Q80 442 139.5 500.0Q199 558 300 558Q401 558 460.5 500.0Q520 442 520 338V212Q520 108 460.5 50.0Q401 -8 300 -8ZM300 79Q356 79 388.5 110.5Q421 142 421 203V347Q421 408 388.5 439.5Q356 471 300 471Q244 471 211.5 439.5Q179 408 179 347V203Q179 142 211.5 110.5Q244 79 300 79Z"/></g><g transform="translate(599.671 0) scale(0.05205 -0.05205)"><path d="M88 0V550H186V445H187Q194 499 232.5 529.5Q271 560 334 560Q416 560 465.0 508.0Q514 456 514 368V0H415V352Q415 412 385.0 444.0Q355 476 303 476Q249 476 218.0 442.5Q187 409 187 349V0Z"/></g></g></svg>