<svg xmlns="http://www.w3.org/2000/svg" viewBox="0 0 547.8 120.0" fill="currentColor"><g transform="translate(0 120)"><g transform="translate(0.000 0) scale(0.08054 -0.08054)"><path d="M784 -21Q586 -21 428.0 70.0Q270 161 178.5 332.0Q87 503 87 744Q87 986 178.5 1157.5Q270 1329 428.0 1420.0Q586 1511 784 1511Q982 1511 1139.5 1420.0Q1297 1329 1388.5 1157.5Q1480 986 1480 744Q1480 503 1388.5 331.5Q1297 160 1139.5 69.5Q982 -21 784 -21ZM784 250Q900 250 987.0 307.0Q1074 364 1122.5 474.5Q1171 585 1171 744Q1171 904 1122.5 1015.0Q1074 1126 987.0 1183.0Q900 1240 784 1240Q669 1240 581.5 1182.5Q494 1125 445.5 1014.5Q397 904 397 744Q397 585 445.5 475.0Q494 365 581.5 307.5Q669 250 784 250Z"/></g><g transform="translate(121.253 0) scale(0.08054 -0.08054)"><path d="M680 -22Q498 -22 365.0 34.0Q232 90 158.5 199.5Q85 309 82 468H379Q383 392 422.0 339.5Q461 287 527.0 260.5Q593 234 678 234Q760 234 821.5 258.0Q883 282 917.0 325.0Q951 368 951 424Q951 475 921.5 510.0Q892 545 834.5 570.0Q777 595 692 614L530 654Q334 700 226.5 799.5Q119 899 119 1061Q119 1196 191.5 1297.0Q264 1398 390.5 1454.5Q517 1511 681 1511Q847 1511 970.5 1454.0Q1094 1397 1163.0 1295.0Q1232 1193 1235 1058H941Q933 1151 863.5 1203.0Q794 1255 679 1255Q602 1255 546.0 1232.5Q490 1210 460.5 1170.5Q431 1131 431 1080Q431 1027 462.5 991.5Q494 956 549.5 932.5Q605 909 674 893L810 860Q909 838 991.5 801.5Q1074 765 1134.0 713.0Q1194 661 1226.0 590.0Q1258 519 1258 428Q1258 291 1189.0 189.5Q1120 88 991.0 33.0Q862 -22 680 -22Z"/></g><g transform="translate(224.224 0) scale(0.08054 -0.08054)"><path d="M129 0V1490H712Q881 1490 1001.0 1426.5Q1121 1363 1184.5 1250.5Q1248 1138 1248 990Q1248 842 1183.5 730.0Q1119 618 998.0 555.0Q877 492 706 492H323V741H665Q755 741 815.5 772.5Q876 804 906.0 860.0Q936 916 936 990Q936 1065 906.0 1120.0Q876 1175 815.5 1206.0Q755 1237 664 1237H435V0Z"/></g><g transform="translate(325.585 0) scale(0.08054 -0.08054)"><path d="M129 0V1490H714Q883 1490 1003.0 1430.0Q1123 1370 1186.5 1261.0Q1250 1152 1250 1004Q1250 857 1185.0 750.0Q1120 643 998.0 586.0Q876 529 704 529H311V776H667Q757 776 817.0 802.5Q877 829 907.5 880.0Q938 931 938 1004Q938 1079 907.5 1130.5Q877 1182 817.0 1209.5Q757 1237 666 1237H435V0ZM962 0 604 677H934L1299 0Z"/></g><g transform="translate(428.717 0) scale(0.08054 -0.08054)"><path d="M592 0V560L40 1490H397L649 1029Q686 961 717.0 894.0Q748 827 780 739H713Q744 828 773.5 895.5Q803 963 839 1029L1083 1490H1438L895 560V0Z"/></g></g></svg>